<?xml version="1.0" encoding="iso-8859-1"?>
<!-- Generator: Adobe Illustrator 18.1.1, SVG Export Plug-In . SVG Version: 6.00 Build 0)  -->
<svg version="1.1" id="Capa_1" xmlns="http://www.w3.org/2000/svg" xmlns:xlink="http://www.w3.org/1999/xlink" x="0px" y="0px"
	 viewBox="0 0 31.961 31.961" style="enable-background:new 0 0 31.961 31.961;" xml:space="preserve">
<g>
	<path style="fill:#030104;" d="M29.759,8.36h-8.501V7.295c0-4.535-4.301-4.269-4.301-4.269h-2.034
		c-4.533,0-4.299,4.301-4.299,4.301V8.36H2.09C-0.079,8.36,0,10.494,0,10.494v4.169c0,0,9.101,3.312,15.914,3.312
		c7.444,0,16.045-3.344,16.045-3.344v-4.137C31.959,8.26,29.759,8.36,29.759,8.36z M13.494,7.206c0-2.134,2.505-2.167,2.505-2.167
		c2.543,0,2.465,2.2,2.465,2.2v1.068h-4.97C13.494,8.307,13.494,7.206,13.494,7.206z M18.624,17.182l-5.287,0.003v-2.038h5.287
		V17.182z"/>
	<path style="fill:#030104;" d="M31.959,26.803V16.169c0,0-6.924,3.188-16.092,3.188C7.434,19.357,0,16.069,0,16.069v10.734
		c0,2.167,2.056,2.134,2.056,2.134h27.736C32.092,28.938,31.959,26.803,31.959,26.803z M18.624,21.18
		c0,0.731-0.591,1.323-1.32,1.323h-2.646c-0.73,0-1.321-0.592-1.321-1.323v-1.364h5.287V21.18z"/>
</g>
<g>
</g>
<g>
</g>
<g>
</g>
<g>
</g>
<g>
</g>
<g>
</g>
<g>
</g>
<g>
</g>
<g>
</g>
<g>
</g>
<g>
</g>
<g>
</g>
<g>
</g>
<g>
</g>
<g>
</g>
</svg>
